<?xml version="1.0" standalone="no"?>
<!DOCTYPE svg PUBLIC "-//W3C//DTD SVG 20010904//EN"
 "http://www.w3.org/TR/2001/REC-SVG-20010904/DTD/svg10.dtd">
<svg version="1.0" xmlns="http://www.w3.org/2000/svg"
 width="604.000000pt" height="604.000000pt" viewBox="0 0 604.000000 604.000000"
 preserveAspectRatio="xMidYMid meet">
<metadata>
Created by potrace 1.16, written by Peter Selinger 2001-2019
</metadata>
<g transform="translate(0.000000,604.000000) scale(0.100000,-0.100000)"
fill="#000000" stroke="none">
<path d="M2844 5430 c27 -9 93 -66 85 -74 -4 -4 -77 18 -114 34 -38 16 -88 30
-109 30 -20 0 -20 -1 4 -20 14 -11 33 -20 42 -20 24 0 48 -11 48 -21 0 -5 -16
-8 -36 -7 -26 1 -38 7 -41 19 -3 9 -14 17 -26 17 -56 2 -77 5 -77 13 0 5 5 9
12 9 6 0 8 3 5 6 -4 4 -12 2 -19 -3 -7 -6 -35 -14 -63 -18 -27 -4 -54 -10 -60
-13 -5 -4 -12 -7 -15 -8 -21 -3 -122 -16 -150 -19 -38 -3 -146 -57 -170 -84
-8 -10 -88 -64 -178 -120 -89 -57 -188 -122 -220 -146 -63 -48 -202 -187 -202
-202 0 -6 -9 -18 -20 -28 -11 -10 -20 -27 -20 -38 0 -10 -12 -38 -28 -61 -35
-53 -92 -161 -92 -175 0 -21 19 -11 39 22 30 48 69 92 77 85 7 -7 -247 -488
-278 -528 l-21 -25 5 28 c3 15 2 30 -2 32 -4 3 -7 32 -5 65 2 58 -7 86 -18 56
-14 -37 -18 -134 -7 -175 11 -42 10 -45 -20 -82 -22 -28 -27 -39 -15 -39 19 0
19 0 -4 -52 -37 -81 -61 -99 -354 -262 -167 -93 -211 -113 -302 -133 -122 -26
-399 -61 -406 -50 -4 5 -11 7 -16 4 -5 -3 -20 7 -33 24 -34 41 -43 36 -37 -18
5 -51 41 -93 78 -93 10 0 19 -6 19 -14 0 -8 7 -17 16 -20 24 -9 28 -7 14 9
-10 12 -10 15 4 15 9 0 16 -6 16 -13 0 -7 10 -21 22 -32 18 -15 47 -21 138
-27 63 -5 123 -13 133 -19 29 -16 236 26 360 72 60 22 111 38 114 36 6 -7 -62
-152 -95 -200 -23 -35 -25 -42 -14 -70 10 -26 9 -41 -2 -77 -14 -43 -29 -97
-41 -150 -3 -14 -24 -40 -46 -57 -49 -39 -43 -43 9 -8 22 15 40 21 46 15 5 -5
16 0 27 13 10 12 18 17 19 10 0 -7 12 0 27 15 41 41 96 126 84 130 -7 2 -8 10
-1 22 6 12 6 21 1 25 -6 3 -6 18 -1 36 5 17 8 34 8 38 -1 3 6 20 15 38 9 18
17 38 17 46 0 7 10 23 23 34 24 22 77 39 77 24 0 -5 -25 -62 -57 -126 -31 -65
-56 -125 -56 -134 1 -9 -3 -32 -8 -51 -54 -212 -62 -304 -34 -420 9 -41 18
-86 20 -100 4 -37 4 -37 19 -11 13 23 13 23 24 -19 6 -26 7 -52 2 -66 -6 -14
-6 -26 0 -29 12 -8 -10 -62 -54 -135 -18 -30 -37 -66 -41 -80 -9 -33 -52 -144
-74 -195 -28 -62 -48 -125 -62 -190 -7 -33 -17 -69 -22 -79 -5 -11 -11 -73
-12 -138 -2 -66 -6 -122 -9 -125 -3 -4 -6 -17 -6 -31 0 -49 54 -266 72 -287 4
-5 8 -19 8 -31 0 -12 11 -32 25 -45 28 -27 34 -54 10 -45 -11 4 -13 2 -8 -7
21 -35 196 -235 224 -257 18 -14 47 -39 64 -57 30 -31 85 -54 85 -36 0 4 -16
17 -35 27 -19 11 -35 23 -35 27 0 4 -19 27 -43 51 -24 24 -55 60 -71 80 -15
20 -49 58 -75 85 -54 55 -86 112 -72 126 6 6 3 24 -10 48 -11 22 -17 39 -15
39 3 0 28 -23 56 -50 27 -28 50 -45 50 -38 0 7 -9 19 -20 26 -11 7 -20 19 -20
27 0 8 -4 15 -8 15 -4 0 -15 12 -24 28 -47 80 -78 422 -38 422 5 0 10 -8 12
-17 3 -13 8 -7 18 19 12 33 18 37 69 47 83 17 166 47 164 60 -4 14 12 14 36
-1 15 -9 27 -6 64 15 43 26 63 44 56 52 -2 1 -25 0 -52 -4 -26 -5 -47 -4 -47
1 0 4 6 8 14 8 13 0 30 39 21 48 -2 2 -20 -2 -40 -9 -34 -13 -36 -16 -32 -45
5 -30 3 -32 -31 -39 -20 -4 -55 -9 -77 -11 -22 -2 -51 -7 -65 -10 -14 -4 -42
-8 -63 -8 -33 -1 -37 1 -37 24 0 39 50 213 67 232 8 9 16 29 18 44 1 15 10 31
19 36 9 5 16 17 16 27 0 10 6 24 14 30 8 7 18 26 21 42 4 16 14 35 24 41 9 7
32 33 51 58 19 25 37 47 40 50 14 14 30 52 30 71 0 16 4 19 20 14 15 -5 26 0
40 17 17 20 21 21 30 8 5 -8 10 -23 10 -32 0 -9 5 -20 10 -23 6 -3 10 -18 10
-32 0 -32 29 -154 40 -168 5 -5 11 -32 15 -58 7 -45 5 -51 -25 -82 l-32 -33
17 -78 c17 -74 17 -78 -1 -91 -16 -12 -16 -13 12 -15 16 -1 37 -2 47 -1 9 0
17 -4 17 -8 0 -4 9 -11 21 -14 14 -5 17 -10 10 -18 -13 -17 21 -146 52 -200
25 -42 99 -117 115 -117 4 0 12 4 19 8 13 8 6 52 -8 52 -5 0 -9 5 -9 10 0 19
25 9 44 -17 15 -21 17 -29 8 -44 -17 -27 -15 -69 4 -76 8 -3 13 -12 10 -19 -4
-11 0 -10 19 2 23 15 26 15 52 -4 25 -18 29 -19 60 -4 18 9 33 21 33 27 0 13
78 91 84 84 3 -2 6 -40 7 -84 3 -101 7 -119 24 -105 21 17 29 -25 12 -60 -9
-18 -12 -32 -6 -36 5 -3 7 -15 3 -27 -5 -18 -4 -20 7 -10 17 17 46 17 51 1 4
-10 9 -9 21 2 37 34 48 41 56 36 13 -8 20 -58 11 -75 -5 -9 -21 -50 -36 -91
-15 -41 -35 -84 -45 -95 -9 -11 -22 -30 -28 -42 -21 -42 -185 -238 -225 -271
-14 -12 -15 -16 -1 -50 9 -21 12 -38 6 -40 -5 -2 -21 -14 -36 -28 -14 -13 -31
-24 -37 -24 -7 0 -22 -9 -34 -21 -38 -36 -50 -16 -13 21 19 18 33 37 32 42 -2
4 4 8 12 8 8 0 15 4 15 10 0 5 -13 7 -32 3 -18 -4 -43 -7 -55 -8 -11 0 -19 -3
-17 -6 2 -4 -3 -10 -12 -13 -11 -4 -14 -13 -10 -30 8 -33 -9 -41 -33 -17 -23
23 -37 11 -20 -17 8 -13 19 -18 33 -14 21 5 21 5 2 -16 -20 -23 -18 -29 22
-71 7 -7 10 -21 6 -30 -4 -9 -8 -29 -9 -46 -1 -16 -3 -35 -3 -41 -1 -6 -16
-17 -33 -25 l-32 -13 23 -18 c21 -17 59 -18 682 -18 623 0 659 1 654 18 -3 9
-8 62 -11 117 -3 55 -8 115 -11 134 l-7 34 53 -42 c46 -36 90 -55 76 -32 -9
13 191 -10 216 -25 5 -3 66 -12 136 -19 164 -17 183 -24 180 -67 -3 -29 0 -33
27 -39 17 -4 55 -7 86 -8 48 -1 57 -4 62 -21 3 -11 12 -20 21 -20 9 0 16 -7
16 -15 0 -13 123 -15 1046 -15 l1046 0 17 22 18 21 21 -21 c25 -25 38 -28 45
-9 3 10 9 10 26 0 29 -18 88 -17 95 2 3 9 18 15 36 15 20 0 30 5 30 15 0 11
-11 15 -42 15 -48 0 -70 10 -66 30 2 8 -15 23 -37 35 -28 15 -39 27 -37 40 3
13 -1 16 -13 11 -9 -3 -27 1 -40 10 -13 9 -37 18 -52 21 -45 9 -136 8 -155 -1
-13 -6 -18 -4 -18 8 0 9 -6 16 -14 16 -8 0 -16 7 -20 15 -7 19 -35 19 -42 0
-9 -23 -23 -18 -30 13 -4 15 -23 46 -43 68 -20 23 -45 59 -56 80 -10 22 -24
46 -31 54 -36 46 -124 243 -137 308 -8 39 -26 91 -40 115 -46 76 -136 201
-186 257 -28 30 -65 73 -84 95 -27 30 -38 37 -48 29 -8 -6 -29 -14 -47 -17
-31 -6 -32 -6 -26 21 13 51 23 71 57 109 18 21 48 58 67 83 19 25 39 48 45 52
5 3 26 21 45 38 60 55 74 62 104 50 35 -13 36 -13 36 5 0 9 11 38 25 64 22 44
84 214 136 375 21 65 18 136 -7 161 -8 7 -18 42 -24 77 -10 68 -45 200 -60
228 -15 29 -28 100 -19 105 4 3 17 -27 29 -67 12 -40 28 -90 36 -111 8 -20 14
-46 14 -57 0 -20 46 -47 59 -34 3 3 5 26 4 50 -1 40 1 44 18 39 18 -6 19 -1
19 72 0 88 -19 177 -50 241 -12 24 -23 67 -26 95 -5 50 -37 128 -142 345 -51
107 -50 128 6 118 20 -3 44 -6 53 -6 9 0 44 -20 78 -45 34 -25 66 -43 71 -40
5 3 25 -9 46 -27 35 -31 37 -32 29 -8 -9 30 -24 48 -95 114 -232 215 -345 341
-319 357 7 4 5 18 -5 44 -38 89 -19 83 89 -32 89 -95 109 -111 132 -108 24 2
25 1 10 -10 -25 -18 -21 -25 13 -25 22 0 28 -4 24 -15 -4 -10 0 -15 15 -15 28
0 27 11 -5 46 -14 16 -32 39 -41 52 -8 12 -22 22 -29 22 -8 0 -14 6 -14 13 0
6 -27 43 -60 80 -80 91 -87 105 -58 116 13 5 26 7 31 4 13 -8 7 12 -13 37 -18
23 -20 23 -20 5 0 -15 -2 -17 -9 -6 -5 7 -14 10 -20 7 -6 -4 -10 -4 -9 1 2 4
-1 10 -7 13 -17 8 -65 53 -65 61 0 4 -18 35 -40 68 -23 34 -59 98 -81 143 -23
44 -51 91 -62 103 -12 12 -23 29 -25 36 -2 8 -8 16 -13 17 -5 2 -9 11 -10 20
0 11 -2 12 -6 4 -3 -8 -12 -4 -25 14 l-21 26 -23 -26 c-27 -29 -33 -102 -11
-136 10 -17 9 -22 -1 -29 -13 -8 -16 -42 -12 -165 1 -26 -2 -52 -8 -58 -9 -9
-74 80 -87 122 -21 65 -193 280 -224 280 -15 0 -14 -17 4 -44 21 -31 75 -182
75 -207 0 -12 7 -37 16 -57 9 -21 22 -52 30 -70 19 -45 18 -52 -11 -52 -14 0
-25 5 -25 10 0 6 -4 10 -10 10 -5 0 -10 -11 -10 -25 0 -36 -12 -31 -35 16 -11
23 -29 46 -41 51 -27 12 -44 48 -44 91 0 50 -68 271 -102 332 -7 11 -18 33
-26 48 -8 16 -22 31 -31 35 -9 3 -19 10 -23 16 -5 7 -11 7 -20 -2 -9 -9 -10
-15 -2 -20 18 -12 24 -52 8 -52 -8 0 -14 4 -14 8 0 15 -62 72 -77 72 -12 0
-15 -9 -10 -42 2 -24 8 -52 11 -63 7 -19 6 -19 -6 -1 -46 65 -51 70 -59 50 -3
-11 2 -40 13 -68 29 -75 23 -77 -49 -16 -23 19 -33 12 -23 -16 14 -36 13 -49
-3 -35 -8 6 -17 8 -20 4 -4 -3 -7 -1 -7 5 0 7 -4 12 -8 12 -5 0 -122 113 -260
250 -186 186 -264 256 -297 271 -26 11 -67 40 -92 65 -46 44 -73 55 -73 32 0
-18 22 -77 43 -114 14 -28 15 -34 2 -44 -8 -7 -22 -9 -31 -6 -13 5 -15 2 -9
-16 3 -13 8 -35 9 -50 2 -16 10 -36 19 -46 36 -40 14 -148 -43 -207 -34 -36
-50 -74 -50 -121 0 -19 -4 -42 -9 -52 -5 -9 -14 -28 -20 -42 l-10 -25 4 25 c2
14 6 46 9 71 4 42 2 47 -24 62 -15 9 -35 17 -43 17 -9 0 -23 10 -32 23 -14 19
-15 47 -9 207 4 102 11 191 17 198 5 6 18 12 28 12 12 0 19 7 19 20 0 25 -20
27 -21 3 0 -10 -3 -13 -5 -7 -3 6 0 22 5 35 5 13 10 19 10 12 1 -19 28 -4 35
19 3 12 0 30 -5 41 -9 15 -18 18 -42 13 -23 -4 -28 -3 -17 4 13 9 13 11 0 21
-11 8 -12 12 -2 16 6 2 12 12 12 21 0 13 -3 12 -19 -4 -10 -10 -16 -25 -13
-33 3 -7 0 -16 -5 -20 -6 -3 -14 -19 -20 -35 -14 -44 -36 -47 -28 -5 3 19 7
45 7 59 1 14 5 30 9 36 14 18 -2 53 -32 66 -16 7 -29 16 -29 20 0 17 -59 7
-72 -11 -7 -10 -33 -27 -58 -39 -56 -25 -150 -101 -150 -120 0 -7 9 -25 19
-38 16 -20 20 -21 25 -8 3 9 3 20 0 26 -9 14 17 29 40 22 14 -5 18 -2 13 9 -3
9 0 21 8 27 11 9 13 2 10 -42 -9 -150 -19 -239 -25 -243 -4 -3 -10 14 -14 38
-8 48 -27 107 -36 107 -3 0 -11 -9 -17 -20 -13 -20 -2 -37 17 -25 6 3 10 2 10
-4 0 -5 2 -16 5 -23 3 -8 -4 -25 -15 -38 -12 -14 -35 -49 -51 -80 -35 -65 -86
-127 -95 -117 -4 4 1 16 11 27 14 16 15 19 4 15 -11 -4 -15 0 -15 16 3 63 -65
5 -90 -77 -23 -76 -37 -93 -64 -76 -35 22 -106 12 -115 -17 -16 -50 -105 -105
-105 -65 0 14 -2 15 -17 3 -15 -13 -16 -9 -10 42 3 31 15 76 26 100 l21 44
-37 -40 c-19 -22 -55 -61 -78 -87 -46 -52 -65 -63 -39 -23 8 13 12 30 8 36 -4
8 -3 9 4 5 15 -9 42 33 49 76 4 30 1 38 -23 57 -34 27 -77 38 -82 23 -2 -7
-10 -12 -18 -12 -8 0 -14 -7 -14 -17 0 -9 -3 -13 -7 -10 -9 9 18 87 30 87 5 0
6 7 3 15 -6 16 13 55 26 55 4 0 30 23 58 50 28 28 48 50 44 50 -11 0 91 78
117 90 37 17 67 35 89 55 23 21 39 13 20 -10 -12 -14 -10 -15 16 -11 39 7 84
27 84 37 0 4 9 6 20 4 11 -2 18 -1 16 4 -3 4 12 16 32 27 20 10 43 25 51 32
11 11 9 12 -15 6 -16 -3 -38 -12 -49 -19 -26 -16 -117 -46 -123 -41 -6 7 76
56 93 56 9 0 18 7 21 15 4 8 12 15 20 15 7 0 11 6 8 14 -3 8 -13 12 -22 9 -9
-3 -2 9 17 26 18 17 32 31 30 31 -2 0 -20 -5 -39 -11 -19 -5 -45 -12 -56 -15
-43 -8 -111 -55 -218 -149 -128 -112 -204 -170 -213 -161 -3 3 6 18 21 32 31
32 27 45 -5 15 -13 -12 -27 -21 -33 -21 -6 0 -25 -17 -44 -37 -19 -21 -31 -30
-28 -20 8 26 -7 20 -28 -11 -23 -33 -106 -105 -114 -98 -9 10 63 120 121 182
35 38 81 74 120 94 34 18 103 55 154 81 50 26 108 59 129 73 40 27 56 27 34 1
-7 -8 -8 -15 -2 -15 5 0 15 6 21 14 16 20 159 89 273 133 25 10 44 22 41 26
-8 13 17 27 49 27 39 0 78 -20 78 -41 0 -26 19 -29 181 -29 133 0 150 -2 156
-17 7 -20 22 -33 38 -33 6 0 4 4 -3 9 -9 5 2 13 35 23 26 8 49 20 51 26 5 17
-36 24 -73 12 -24 -8 -40 -8 -52 -1 -16 9 -16 10 4 11 16 0 21 4 16 16 -7 18
-46 38 -88 43 -6 1 -5 5 2 9 24 15 -72 93 -113 91 -12 0 -9 -4 10 -9z m-51
-685 c6 -6 10 -6 14 3 2 6 10 12 17 12 14 0 14 0 24 -95 5 -52 3 -89 -10 -145
-10 -41 -18 -90 -18 -107 0 -26 -5 -34 -24 -39 -13 -3 -33 -1 -43 5 -26 13
-64 3 -85 -23 -16 -20 -17 -20 -24 9 -3 17 -16 50 -27 75 -21 47 -31 137 -16
146 5 3 7 10 4 15 -4 5 -4 9 0 9 3 0 10 -11 15 -25 5 -14 13 -25 18 -25 12 0
42 72 42 101 0 13 5 31 10 39 7 11 10 3 10 -29 0 -54 10 -45 34 30 18 55 38
70 59 44z m536 -187 c37 -35 111 -104 166 -154 107 -97 221 -243 211 -270 -4
-12 -10 -13 -26 -4 -24 13 -126 -6 -237 -44 -39 -13 -74 -22 -77 -18 -3 3 -6
31 -6 63 0 138 -36 295 -92 395 -29 54 -36 94 -16 94 6 0 41 -28 77 -62z m-49
-95 c16 -29 35 -87 44 -135 16 -87 20 -229 7 -262 -6 -15 -53 -39 -96 -49 -13
-3 -9 149 6 226 11 55 7 188 -7 251 -10 44 13 29 46 -31z m-835 -98 c-27 -60
-115 -211 -165 -280 -30 -43 -85 -98 -79 -79 6 18 159 277 213 362 55 86 70
85 31 -3z m198 -255 c34 -88 77 -232 77 -262 0 -39 -10 -39 -44 -3 -31 33 -32
33 -111 29 -44 -3 -127 -14 -183 -25 -57 -11 -106 -18 -109 -15 -3 2 20 49 50
103 30 54 71 139 90 188 37 92 99 218 119 243 9 10 19 -9 48 -90 20 -57 48
-132 63 -168z m-1055 143 c-11 -14 -11 -17 1 -21 8 -3 25 -15 38 -28 13 -13
29 -21 36 -18 8 3 19 -6 25 -21 15 -34 16 -32 -13 -39 -14 -4 -25 -12 -25 -19
0 -6 -17 -23 -37 -36 -29 -19 -40 -21 -54 -12 -10 6 -25 8 -34 5 -11 -5 -15 1
-15 19 0 14 -4 37 -10 52 -13 33 8 76 58 124 35 33 59 28 30 -6z m2165 -171
c37 -26 48 -42 111 -169 36 -74 35 -77 -26 -69 -143 18 -196 18 -266 2 -39 -9
-84 -16 -99 -16 -28 0 -83 -24 -138 -59 -43 -28 -49 -25 -28 10 22 37 92 81
166 105 31 9 54 21 52 24 -5 8 -157 -14 -175 -25 -13 -8 -13 35 -1 68 18 47
293 175 346 161 11 -3 37 -18 58 -32z m-443 -151 c0 -23 -24 -70 -59 -116 -39
-51 -71 -122 -49 -109 8 5 9 1 4 -12 -19 -46 -19 -53 4 -47 19 5 21 3 15 -16
-5 -17 -2 -21 14 -21 11 0 22 4 25 9 4 5 36 26 72 46 48 27 69 34 77 26 8 -8
19 -3 42 18 33 31 75 49 75 32 0 -6 -4 -11 -9 -11 -5 0 -7 -9 -4 -20 4 -13 -1
-26 -12 -34 -16 -12 -15 -14 15 -19 18 -4 60 -3 94 2 34 6 82 13 109 16 26 3
47 10 47 15 0 8 117 79 153 93 12 5 17 1 17 -12 0 -10 7 -31 15 -48 19 -38 43
-162 50 -261 3 -42 10 -106 16 -142 10 -59 8 -76 -16 -175 -26 -104 -48 -160
-77 -195 -17 -21 -112 -80 -127 -80 -7 0 -9 -4 -6 -10 3 -5 20 -10 37 -10 l32
0 -30 -31 c-16 -17 -51 -42 -78 -55 -36 -16 -45 -25 -34 -29 42 -16 124 31
218 125 25 25 140 104 140 96 0 -3 -6 -20 -14 -38 -8 -18 -28 -78 -45 -133
-36 -116 -80 -197 -203 -372 -49 -70 -337 -281 -406 -298 -35 -9 -48 -17 -50
-32 -4 -28 -60 -41 -137 -32 -33 4 -63 5 -68 2 -12 -7 18 -31 48 -39 34 -9 42
-30 20 -54 -11 -12 -13 -20 -7 -20 7 0 12 -4 12 -9 0 -27 -245 24 -352 73 -40
18 -111 50 -158 71 -107 48 -155 81 -215 147 -49 55 -95 121 -95 137 0 5 13
12 30 16 47 10 44 22 -8 30 -76 11 -123 71 -210 265 -45 101 -97 236 -110 285
-33 124 -42 156 -62 220 -12 39 -22 77 -23 85 -3 25 67 25 107 1 21 -14 50
-21 80 -21 53 0 110 25 103 44 -3 8 41 36 123 77 71 35 129 70 129 78 1 9 -6
11 -25 7 -27 -7 -58 9 -48 25 11 19 135 2 149 -20 2 -5 -7 -30 -21 -55 -14
-25 -22 -46 -17 -46 4 0 46 38 92 85 47 47 86 84 87 82 1 -1 -4 -31 -13 -67
-9 -41 -46 -126 -100 -229 -84 -159 -87 -164 -146 -202 -55 -36 -112 -59 -145
-59 -7 0 -10 -5 -6 -11 9 -15 75 -4 133 22 24 10 46 17 48 15 2 -2 -1 -24 -8
-49 -8 -34 -8 -55 0 -78 6 -18 11 -57 12 -88 l1 -56 13 71 c18 99 30 134 87
244 51 99 147 218 167 206 7 -5 11 -48 11 -122 0 -109 1 -116 25 -140 36 -36
76 -30 89 14 10 35 19 38 55 18 14 -8 31 -12 38 -9 7 3 20 0 28 -7 20 -17 33
-5 45 40 12 43 23 48 54 25 31 -23 73 -19 92 10 8 13 13 33 10 43 -7 22 -49
44 -69 36 -8 -3 -36 19 -67 53 -38 41 -52 51 -48 35 4 -13 0 -42 -7 -65 -7
-23 -16 -54 -19 -69 -6 -24 -9 -26 -29 -17 -12 5 -33 33 -48 61 -32 65 -53 80
-73 53 -14 -19 -15 -19 -22 8 -9 40 3 146 21 174 35 53 110 129 146 148 57 31
89 62 89 88 0 13 7 32 15 43 19 25 19 40 0 24 -26 -22 -27 -5 -2 71 14 41 27
88 31 104 5 22 19 37 54 57 52 29 62 33 62 19z m-644 -193 c20 -10 24 -19 26
-62 5 -117 1 -133 -28 -122 -12 5 -14 9 -5 20 19 22 -13 38 -130 65 -130 29
-288 -33 -438 -173 l-43 -41 7 35 c8 42 41 100 94 167 35 44 49 53 127 82 49
17 109 36 134 41 54 11 222 3 256 -12z m2198 -905 c15 -94 0 -248 -25 -264
-22 -14 -119 -11 -119 4 -1 6 -3 45 -7 85 l-5 72 68 69 c38 38 72 69 75 70 4
1 9 -16 13 -36z m-3384 -294 c0 -10 9 -36 20 -57 17 -33 18 -42 7 -65 -6 -15
-18 -27 -24 -27 -15 0 -15 -7 -3 -35 9 -19 9 -19 16 3 11 38 24 24 19 -20 -10
-82 -25 -98 -40 -41 -3 16 -12 35 -19 43 -18 22 -38 88 -31 100 4 6 2 16 -3
23 -7 9 -6 30 5 70 16 54 17 56 35 40 10 -9 18 -24 18 -34z m1415 -661 c19
-13 35 -31 35 -41 0 -10 11 -22 25 -27 31 -12 112 -94 107 -109 -2 -6 2 -9 10
-6 7 2 42 -23 78 -55 62 -58 64 -60 45 -75 -11 -9 -30 -20 -42 -25 -13 -5 -23
-16 -23 -25 0 -31 -37 -13 -74 35 -21 28 -50 60 -64 71 -25 19 -27 19 -39 3
-12 -16 -13 -16 -13 -1 0 9 -5 17 -11 17 -21 0 -1 -68 31 -109 18 -22 29 -45
25 -51 -4 -6 1 -20 10 -30 17 -18 17 -20 1 -26 -9 -4 -18 -5 -20 -3 -13 14
-105 282 -104 305 0 16 -5 49 -11 74 -11 48 -14 100 -6 100 3 0 21 -10 40 -22z
m1865 -948 c-18 -161 -58 -336 -82 -367 -8 -10 -13 -10 -22 0 -19 18 -8 86 50
312 9 33 17 79 19 102 4 55 13 69 31 51 12 -11 12 -30 4 -98z"/>
<path d="M3095 2750 c3 -6 -1 -13 -9 -16 -8 -3 -18 -15 -21 -25 -4 -11 -21
-26 -39 -33 -19 -8 -46 -30 -61 -50 -15 -19 -48 -51 -75 -70 -53 -38 -69 -72
-39 -81 10 -4 31 0 46 9 16 8 61 22 101 31 41 9 121 32 178 51 57 18 148 40
202 48 145 22 167 29 167 51 0 16 -12 21 -75 31 -41 7 -95 19 -120 28 -25 9
-53 16 -62 16 -10 0 -18 5 -18 10 0 14 -32 12 -73 -5 -35 -14 -67 -12 -67 6 0
5 -9 9 -21 9 -11 0 -17 -5 -14 -10z"/>
<path d="M3205 2431 c-98 -27 -165 -55 -165 -69 1 -24 31 -42 70 -42 83 0 290
74 290 104 0 43 -56 45 -195 7z"/>
<path d="M3570 5432 c-19 -2 -39 -7 -45 -11 -5 -4 -45 -6 -88 -5 -44 1 -74 -2
-67 -6 7 -4 2 -13 -15 -24 -26 -17 -27 -17 -42 3 -8 13 -19 18 -26 14 -7 -4
-21 -9 -32 -10 -28 -5 -44 -23 -20 -23 64 0 255 -24 280 -36 17 -7 71 -26 120
-42 109 -36 159 -58 205 -92 19 -14 46 -31 60 -38 27 -13 62 -34 70 -42 3 -3
12 -9 21 -15 10 -5 40 -26 68 -44 29 -19 59 -36 69 -37 9 -2 22 -11 29 -20 7
-10 13 -14 13 -10 0 5 7 3 15 -4 9 -7 18 -10 22 -6 3 3 4 8 2 10 -43 36 -220
166 -227 166 -5 0 -15 7 -22 14 -6 8 -33 22 -58 31 -88 30 -241 110 -248 128
-3 10 -18 23 -32 30 -26 11 -24 11 26 17 l54 5 -29 21 c-34 25 -56 30 -103 26z"/>
<path d="M4141 4995 c-2 -19 27 -51 86 -96 71 -54 90 -74 110 -119 21 -48 43
-71 63 -65 9 3 29 -4 45 -16 l27 -22 -7 24 c-11 36 -15 42 -75 109 -30 33 -81
80 -115 102 -33 23 -61 45 -63 49 -2 4 -10 5 -18 2 -8 -3 -14 0 -14 6 0 6 -6
11 -14 11 -8 0 -17 6 -19 13 -3 6 -6 7 -6 2z"/>
<path d="M5552 2957 c-7 -8 -7 -31 0 -67 5 -30 8 -109 6 -175 -4 -120 -4 -121
-47 -199 -23 -43 -37 -76 -30 -74 7 2 24 24 36 49 l24 44 -7 -58 c-6 -50 -4
-57 10 -51 23 9 65 84 82 146 39 148 -19 452 -74 385z"/>
</g>
</svg>
